<mxfile host="" modified="2020-05-24T15:21:41.060Z" agent="5.0 (X11; Linux x86_64) AppleWebKit/537.36 (KHTML, like Gecko) Code/1.45.0 Chrome/78.0.3904.130 Electron/7.2.4 Safari/537.36" version="13.1.3" etag="lrwgP8mNOWNbAz78NI_h" pages="2">
            <diagram id="diagramid" name="Diagram">
              <mxGraphModel><root><mxCell id="0"/><mxCell id="1" parent="0"/><mxCell id="2" value="seederconstructeventstoragerawbucketA5644EB5" style="outlineConnect=0;fontColor=#B3B3B3;gradientColor=#60A337;gradientDirection=north;fillColor=#277116;strokeColor=#ffffff;dashed=0;verticalLabelPosition=bottom;verticalAlign=top;align=center;html=1;fontSize=12;fontStyle=0;aspect=fixed;shape=mxgraph.aws4.resourceIcon;resIcon=mxgraph.aws4.s3;" vertex="1" parent="1"><mxGeometry x="250" y="650" width="50" height="50" as="geometry"/></mxCell><mxCell id="5" value="seederconstructeventstoragelandingbucket9B76A9B7" style="outlineConnect=0;fontColor=#B3B3B3;gradientColor=#60A337;gradientDirection=north;fillColor=#277116;strokeColor=#ffffff;dashed=0;verticalLabelPosition=bottom;verticalAlign=top;align=center;html=1;fontSize=12;fontStyle=0;aspect=fixed;shape=mxgraph.aws4.resourceIcon;resIcon=mxgraph.aws4.s3;" vertex="1" parent="1"><mxGeometry x="500" y="300" width="50" height="50" as="geometry"/></mxCell><mxCell id="8" value="seederconstructeventstoragestagingbucketF569C51D" style="outlineConnect=0;fontColor=#B3B3B3;gradientColor=#60A337;gradientDirection=north;fillColor=#277116;strokeColor=#ffffff;dashed=0;verticalLabelPosition=bottom;verticalAlign=top;align=center;html=1;fontSize=12;fontStyle=0;aspect=fixed;shape=mxgraph.aws4.resourceIcon;resIcon=mxgraph.aws4.s3;" vertex="1" parent="1"><mxGeometry y="800" width="50" height="50" as="geometry"/></mxCell><mxCell id="13" value="seederconstructeventstoragestreamDF0580FB" style="outlineConnect=0;fontColor=#B3B3B3;gradientColor=#945DF2;gradientDirection=north;fillColor=#5A30B5;strokeColor=#ffffff;dashed=0;verticalLabelPosition=bottom;verticalAlign=top;align=center;html=1;fontSize=12;fontStyle=0;aspect=fixed;shape=mxgraph.aws4.resourceIcon;resIcon=mxgraph.aws4.kinesis;" vertex="1" parent="1"><mxGeometry x="500" y="512.5" width="50" height="50" as="geometry"/></mxCell><mxCell id="14" value="seederconstructeventstorageaudittableF928A6F1" style="outlineConnect=0;fontColor=#B3B3B3;gradientColor=#4D72F3;gradientDirection=north;fillColor=#3334B9;strokeColor=#ffffff;dashed=0;verticalLabelPosition=bottom;verticalAlign=top;align=center;html=1;fontSize=12;fontStyle=0;aspect=fixed;shape=mxgraph.aws4.resourceIcon;resIcon=mxgraph.aws4.dynamodb;" vertex="1" parent="1"><mxGeometry y="950" width="50" height="50" as="geometry"/></mxCell><mxCell id="15" value="seederconstructeventstorageddbtableD582708A" style="outlineConnect=0;fontColor=#B3B3B3;gradientColor=#4D72F3;gradientDirection=north;fillColor=#3334B9;strokeColor=#ffffff;dashed=0;verticalLabelPosition=bottom;verticalAlign=top;align=center;html=1;fontSize=12;fontStyle=0;aspect=fixed;shape=mxgraph.aws4.resourceIcon;resIcon=mxgraph.aws4.dynamodb;" vertex="1" parent="1"><mxGeometry x="250" y="550" width="50" height="50" as="geometry"/></mxCell><mxCell id="21" value="seederconstructglueresourcesgluedbDAE27AF3" style="outlineConnect=0;fontColor=#B3B3B3;gradientColor=#945DF2;gradientDirection=north;fillColor=#5A30B5;strokeColor=#ffffff;dashed=0;verticalLabelPosition=bottom;verticalAlign=top;align=center;html=1;fontSize=12;fontStyle=0;aspect=fixed;shape=mxgraph.aws4.resourceIcon;resIcon=mxgraph.aws4.glue;" vertex="1" parent="1"><mxGeometry x="500" y="200" width="50" height="50" as="geometry"/></mxCell><mxCell id="22" value="seederconstructglueresourcesgluetableTable1A98AD8D" style="outlineConnect=0;fontColor=#B3B3B3;gradientColor=#945DF2;gradientDirection=north;fillColor=#5A30B5;strokeColor=#ffffff;dashed=0;verticalLabelPosition=bottom;verticalAlign=top;align=center;html=1;fontSize=12;fontStyle=0;aspect=fixed;shape=mxgraph.aws4.resourceIcon;resIcon=mxgraph.aws4.glue;" vertex="1" parent="1"><mxGeometry x="250" y="200" width="50" height="50" as="geometry"/></mxCell><mxCell id="25" value="seederconstructglueresourcesMyGlueCrawlerED40A651" style="outlineConnect=0;fontColor=#B3B3B3;gradientColor=#945DF2;gradientDirection=north;fillColor=#5A30B5;strokeColor=#ffffff;dashed=0;verticalLabelPosition=bottom;verticalAlign=top;align=center;html=1;fontSize=12;fontStyle=0;aspect=fixed;shape=mxgraph.aws4.resourceIcon;resIcon=mxgraph.aws4.glue;" vertex="1" parent="1"><mxGeometry y="162.5" width="50" height="50" as="geometry"/></mxCell><mxCell id="33" value="seederconstructs3firehosedeliveryfirehoseenricherlambdas204E698E" style="outlineConnect=0;fontColor=#B3B3B3;gradientColor=#F78E04;gradientDirection=north;fillColor=#D05C17;strokeColor=#ffffff;dashed=0;verticalLabelPosition=bottom;verticalAlign=top;align=center;html=1;fontSize=12;fontStyle=0;aspect=fixed;shape=mxgraph.aws4.resourceIcon;resIcon=mxgraph.aws4.lambda;" vertex="1" parent="1"><mxGeometry x="250" y="400" width="50" height="50" as="geometry"/></mxCell><mxCell id="35" value="seederconstructs3firehosedeliverydeliverystream3E5A173B" style="outlineConnect=0;fontColor=#B3B3B3;gradientColor=#aaaaaa;gradientDirection=north;fillColor=#aaaaaa;strokeColor=#ffffff;dashed=0;verticalLabelPosition=bottom;verticalAlign=top;align=center;html=1;fontSize=12;fontStyle=0;aspect=fixed;shape=mxgraph.aws4.resourceIcon;resIcon=mxgraph.aws4.kinesisfirehose;" vertex="1" parent="1"><mxGeometry y="325" width="50" height="50" as="geometry"/></mxCell><mxCell id="38" value="seederconstructseedtaskddbseeder7E84DA27" style="outlineConnect=0;fontColor=#B3B3B3;gradientColor=#F78E04;gradientDirection=north;fillColor=#D05C17;strokeColor=#ffffff;dashed=0;verticalLabelPosition=bottom;verticalAlign=top;align=center;html=1;fontSize=12;fontStyle=0;aspect=fixed;shape=mxgraph.aws4.resourceIcon;resIcon=mxgraph.aws4.lambda;" vertex="1" parent="1"><mxGeometry y="450" width="50" height="50" as="geometry"/></mxCell><mxCell id="42" value="seederconstructseedtaskCrawlerStarter23DB5C77" style="outlineConnect=0;fontColor=#B3B3B3;gradientColor=#F78E04;gradientDirection=north;fillColor=#D05C17;strokeColor=#ffffff;dashed=0;verticalLabelPosition=bottom;verticalAlign=top;align=center;html=1;fontSize=12;fontStyle=0;aspect=fixed;shape=mxgraph.aws4.resourceIcon;resIcon=mxgraph.aws4.lambda;" vertex="1" parent="1"><mxGeometry y="1100" width="50" height="50" as="geometry"/></mxCell><mxCell id="48" value="seederconstructseedtaskinvokesfn2DCB1D7F" style="outlineConnect=0;fontColor=#B3B3B3;gradientColor=#F78E04;gradientDirection=north;fillColor=#D05C17;strokeColor=#ffffff;dashed=0;verticalLabelPosition=bottom;verticalAlign=top;align=center;html=1;fontSize=12;fontStyle=0;aspect=fixed;shape=mxgraph.aws4.resourceIcon;resIcon=mxgraph.aws4.lambda;" vertex="1" parent="1"><mxGeometry x="250" width="50" height="50" as="geometry"/></mxCell><mxCell id="51" value="seederconstructseedtaskCrawlerStarterProviderframeworkonEvent3F275E37" style="outlineConnect=0;fontColor=#B3B3B3;gradientColor=#F78E04;gradientDirection=north;fillColor=#D05C17;strokeColor=#ffffff;dashed=0;verticalLabelPosition=bottom;verticalAlign=top;align=center;html=1;fontSize=12;fontStyle=0;aspect=fixed;shape=mxgraph.aws4.resourceIcon;resIcon=mxgraph.aws4.lambda;" vertex="1" parent="1"><mxGeometry width="50" height="50" as="geometry"/></mxCell><mxCell id="54" value="CustomS3AutoDeleteObjectsCustomResourceProviderHandler9D90184F" style="outlineConnect=0;fontColor=#B3B3B3;gradientColor=#F78E04;gradientDirection=north;fillColor=#D05C17;strokeColor=#ffffff;dashed=0;verticalLabelPosition=bottom;verticalAlign=top;align=center;html=1;fontSize=12;fontStyle=0;aspect=fixed;shape=mxgraph.aws4.resourceIcon;resIcon=mxgraph.aws4.lambda;" vertex="1" parent="1"><mxGeometry y="650" width="50" height="50" as="geometry"/></mxCell><mxCell id="57" value="CustomCDKBucketDeployment8693BB64968944B69AAFB0CC9EB8756C81C01536" style="outlineConnect=0;fontColor=#B3B3B3;gradientColor=#F78E04;gradientDirection=north;fillColor=#D05C17;strokeColor=#ffffff;dashed=0;verticalLabelPosition=bottom;verticalAlign=top;align=center;html=1;fontSize=12;fontStyle=0;aspect=fixed;shape=mxgraph.aws4.resourceIcon;resIcon=mxgraph.aws4.lambda;" vertex="1" parent="1"><mxGeometry y="1250" width="50" height="50" as="geometry"/></mxCell><mxCell id="60" value="LogRetentionaae0aa3c5b4d4f87b02d85b201efdd8aFD4BFC8A" style="outlineConnect=0;fontColor=#B3B3B3;gradientColor=#F78E04;gradientDirection=north;fillColor=#D05C17;strokeColor=#ffffff;dashed=0;verticalLabelPosition=bottom;verticalAlign=top;align=center;html=1;fontSize=12;fontStyle=0;aspect=fixed;shape=mxgraph.aws4.resourceIcon;resIcon=mxgraph.aws4.lambda;" vertex="1" parent="1"><mxGeometry y="1400" width="50" height="50" as="geometry"/></mxCell><mxCell id="seederconstructeventstoragestreamDF0580FB|seederconstructeventstorageddbtableD582708A" value="" style="edgeStyle=orthogonalEdgeStyle;rounded=1;orthogonalLoop=1;jettySize=auto;html=1;labelBackgroundColor=none;fontColor=#EA6B66;noEdgeStyle=1;orthogonal=1;" edge="1" parent="1" source="15" target="13"><mxGeometry relative="1" as="geometry"><Array as="points"><mxPoint x="312" y="575"/><mxPoint x="488" y="547.5"/></Array></mxGeometry></mxCell><mxCell id="seederconstructglueresourcesgluedbDAE27AF3|seederconstructglueresourcesgluetableTable1A98AD8D" value="" style="edgeStyle=orthogonalEdgeStyle;rounded=1;orthogonalLoop=1;jettySize=auto;html=1;labelBackgroundColor=none;fontColor=#EA6B66;noEdgeStyle=1;orthogonal=1;" edge="1" parent="1" source="22" target="21"><mxGeometry relative="1" as="geometry"><Array as="points"><mxPoint x="312" y="215"/><mxPoint x="486" y="225"/></Array></mxGeometry></mxCell><mxCell id="seederconstructeventstoragelandingbucket9B76A9B7|seederconstructglueresourcesgluetableTable1A98AD8D" value="" style="edgeStyle=orthogonalEdgeStyle;rounded=1;orthogonalLoop=1;jettySize=auto;html=1;labelBackgroundColor=none;fontColor=#EA6B66;noEdgeStyle=1;orthogonal=1;" edge="1" parent="1" source="22" target="5"><mxGeometry relative="1" as="geometry"><Array as="points"><mxPoint x="312" y="235"/><mxPoint x="488" y="315"/></Array></mxGeometry></mxCell><mxCell id="seederconstructglueresourcesgluedbDAE27AF3|seederconstructglueresourcesMyGlueCrawlerED40A651" value="" style="edgeStyle=orthogonalEdgeStyle;rounded=1;orthogonalLoop=1;jettySize=auto;html=1;labelBackgroundColor=none;fontColor=#EA6B66;noEdgeStyle=1;orthogonal=1;" edge="1" parent="1" source="25" target="21"><mxGeometry relative="1" as="geometry"><Array as="points"><mxPoint x="62" y="177.5"/><mxPoint x="150" y="150"/><mxPoint x="400" y="150"/><mxPoint x="488" y="211.66666666666666"/></Array></mxGeometry></mxCell><mxCell id="seederconstructglueresourcesgluetableTable1A98AD8D|seederconstructglueresourcesMyGlueCrawlerED40A651" value="" style="edgeStyle=orthogonalEdgeStyle;rounded=1;orthogonalLoop=1;jettySize=auto;html=1;labelBackgroundColor=none;fontColor=#EA6B66;noEdgeStyle=1;orthogonal=1;" edge="1" parent="1" source="25" target="22"><mxGeometry relative="1" as="geometry"><Array as="points"><mxPoint x="62" y="197.5"/><mxPoint x="238" y="215"/></Array></mxGeometry></mxCell><mxCell id="seederconstructglueresourcesgluedbDAE27AF3|seederconstructs3firehosedeliverydeliverystream3E5A173B" value="" style="edgeStyle=orthogonalEdgeStyle;rounded=1;orthogonalLoop=1;jettySize=auto;html=1;labelBackgroundColor=none;fontColor=#EA6B66;noEdgeStyle=1;orthogonal=1;" edge="1" parent="1" source="35" target="21"><mxGeometry relative="1" as="geometry"><Array as="points"><mxPoint x="64" y="342"/><mxPoint x="150" y="300"/><mxPoint x="400" y="300"/><mxPoint x="488" y="238.33333333333334"/></Array></mxGeometry></mxCell><mxCell id="seederconstructglueresourcesgluetableTable1A98AD8D|seederconstructs3firehosedeliverydeliverystream3E5A173B" value="" style="edgeStyle=orthogonalEdgeStyle;rounded=1;orthogonalLoop=1;jettySize=auto;html=1;labelBackgroundColor=none;fontColor=#EA6B66;noEdgeStyle=1;orthogonal=1;" edge="1" parent="1" source="35" target="22"><mxGeometry relative="1" as="geometry"><Array as="points"><mxPoint x="62" y="334"/><mxPoint x="238" y="235"/></Array></mxGeometry></mxCell><mxCell id="seederconstructeventstoragelandingbucket9B76A9B7|seederconstructs3firehosedeliverydeliverystream3E5A173B" value="" style="edgeStyle=orthogonalEdgeStyle;rounded=1;orthogonalLoop=1;jettySize=auto;html=1;labelBackgroundColor=none;fontColor=#EA6B66;noEdgeStyle=1;orthogonal=1;" edge="1" parent="1" source="35" target="5"><mxGeometry relative="1" as="geometry"><Array as="points"><mxPoint x="66" y="350"/><mxPoint x="150" y="350"/><mxPoint x="400" y="350"/><mxPoint x="488" y="335"/></Array></mxGeometry></mxCell><mxCell id="seederconstructs3firehosedeliveryfirehoseenricherlambdas204E698E|seederconstructs3firehosedeliverydeliverystream3E5A173B" value="" style="edgeStyle=orthogonalEdgeStyle;rounded=1;orthogonalLoop=1;jettySize=auto;html=1;labelBackgroundColor=none;fontColor=#EA6B66;noEdgeStyle=1;orthogonal=1;" edge="1" parent="1" source="35" target="33"><mxGeometry relative="1" as="geometry"><Array as="points"><mxPoint x="64" y="358"/><mxPoint x="238" y="425"/></Array></mxGeometry></mxCell><mxCell id="seederconstructeventstoragestreamDF0580FB|seederconstructs3firehosedeliverydeliverystream3E5A173B" value="" style="edgeStyle=orthogonalEdgeStyle;rounded=1;orthogonalLoop=1;jettySize=auto;html=1;labelBackgroundColor=none;fontColor=#EA6B66;noEdgeStyle=1;orthogonal=1;" edge="1" parent="1" source="35" target="13"><mxGeometry relative="1" as="geometry"><Array as="points"><mxPoint x="62" y="366"/><mxPoint x="150" y="500"/><mxPoint x="400" y="500"/><mxPoint x="488" y="527.5"/></Array></mxGeometry></mxCell><mxCell id="seederconstructeventstoragerawbucketA5644EB5|seederconstructseedtaskddbseeder7E84DA27" value="" style="edgeStyle=orthogonalEdgeStyle;rounded=1;orthogonalLoop=1;jettySize=auto;html=1;labelBackgroundColor=none;fontColor=#EA6B66;noEdgeStyle=1;orthogonal=1;" edge="1" parent="1" source="38" target="2"><mxGeometry relative="1" as="geometry"><Array as="points"><mxPoint x="62" y="485"/><mxPoint x="238" y="665"/></Array></mxGeometry></mxCell><mxCell id="seederconstructeventstorageddbtableD582708A|seederconstructseedtaskddbseeder7E84DA27" value="" style="edgeStyle=orthogonalEdgeStyle;rounded=1;orthogonalLoop=1;jettySize=auto;html=1;labelBackgroundColor=none;fontColor=#EA6B66;noEdgeStyle=1;orthogonal=1;" edge="1" parent="1" source="38" target="15"><mxGeometry relative="1" as="geometry"><Array as="points"><mxPoint x="62" y="465"/><mxPoint x="238" y="575"/></Array></mxGeometry></mxCell><mxCell id="seederconstructseedtaskinvokesfn2DCB1D7F|seederconstructseedtaskCrawlerStarterProviderframeworkonEvent3F275E37" value="" style="edgeStyle=orthogonalEdgeStyle;rounded=1;orthogonalLoop=1;jettySize=auto;html=1;labelBackgroundColor=none;fontColor=#EA6B66;noEdgeStyle=1;orthogonal=1;" edge="1" parent="1" source="51" target="48"><mxGeometry relative="1" as="geometry"><Array as="points"><mxPoint x="62" y="25"/><mxPoint x="238" y="25"/></Array></mxGeometry></mxCell><mxCell id="seederconstructeventstoragerawbucketA5644EB5|CustomS3AutoDeleteObjectsCustomResourceProviderHandler9D90184F" value="" style="edgeStyle=orthogonalEdgeStyle;rounded=1;orthogonalLoop=1;jettySize=auto;html=1;labelBackgroundColor=none;fontColor=#EA6B66;noEdgeStyle=1;orthogonal=1;" edge="1" parent="1" source="54" target="2"><mxGeometry relative="1" as="geometry"><Array as="points"><mxPoint x="62" y="675"/><mxPoint x="238" y="685"/></Array></mxGeometry></mxCell></root></mxGraphModel>
            </diagram>
          </mxfile>